<mxfile host="app.diagrams.net" modified="2021-04-16T09:25:56.065Z" agent="5.0 (Windows NT 10.0; Win64; x64) AppleWebKit/537.36 (KHTML, like Gecko) Chrome/90.0.4430.72 Safari/537.36" etag="ZlG8rKyuc9LuP2zG6-F_" version="14.6.1" type="github">
  <diagram id="51T1Dkvb2ODKfpFt_ZPD" name="Page-1">
    <mxGraphModel dx="1038" dy="548" grid="1" gridSize="10" guides="1" tooltips="1" connect="1" arrows="1" fold="1" page="1" pageScale="1" pageWidth="827" pageHeight="1169" math="0" shadow="0">
      <root>
        <mxCell id="0" />
        <mxCell id="1" parent="0" />
        <mxCell id="ysUKuYNqQgm_iFsBiP2R-1" value="" style="rounded=0;whiteSpace=wrap;html=1;labelBackgroundColor=#009999;labelBorderColor=#000000;strokeColor=none;fillColor=#67AB9F;fontColor=#000000;" vertex="1" parent="1">
          <mxGeometry x="50" y="40" width="1910" height="60" as="geometry" />
        </mxCell>
        <mxCell id="ysUKuYNqQgm_iFsBiP2R-2" value="&lt;font style=&quot;font-size: 21px&quot;&gt;Step 3: Unified Modeling Language&lt;/font&gt;" style="text;html=1;strokeColor=none;fillColor=none;align=center;verticalAlign=middle;whiteSpace=wrap;rounded=0;labelBackgroundColor=none;fontColor=#000000;" vertex="1" parent="1">
          <mxGeometry x="70" y="60" width="1830" height="20" as="geometry" />
        </mxCell>
        <mxCell id="ysUKuYNqQgm_iFsBiP2R-3" value="products" style="swimlane;fontStyle=0;childLayout=stackLayout;horizontal=1;startSize=26;fillColor=#dae8fc;horizontalStack=0;resizeParent=1;resizeParentMax=0;resizeLast=0;collapsible=1;marginBottom=0;strokeColor=#6c8ebf;" vertex="1" parent="1">
          <mxGeometry x="240" y="360" width="140" height="156" as="geometry" />
        </mxCell>
        <mxCell id="ysUKuYNqQgm_iFsBiP2R-4" value="+ ProductId Int" style="text;align=left;verticalAlign=top;spacingLeft=4;spacingRight=4;overflow=hidden;rotatable=0;points=[[0,0.5],[1,0.5]];portConstraint=eastwest;" vertex="1" parent="ysUKuYNqQgm_iFsBiP2R-3">
          <mxGeometry y="26" width="140" height="26" as="geometry" />
        </mxCell>
        <mxCell id="ysUKuYNqQgm_iFsBiP2R-5" value="+ ProductName String" style="text;align=left;verticalAlign=top;spacingLeft=4;spacingRight=4;overflow=hidden;rotatable=0;points=[[0,0.5],[1,0.5]];portConstraint=eastwest;" vertex="1" parent="ysUKuYNqQgm_iFsBiP2R-3">
          <mxGeometry y="52" width="140" height="26" as="geometry" />
        </mxCell>
        <mxCell id="ysUKuYNqQgm_iFsBiP2R-6" value="+ ProductDescr String" style="text;align=left;verticalAlign=top;spacingLeft=4;spacingRight=4;overflow=hidden;rotatable=0;points=[[0,0.5],[1,0.5]];portConstraint=eastwest;" vertex="1" parent="ysUKuYNqQgm_iFsBiP2R-3">
          <mxGeometry y="78" width="140" height="26" as="geometry" />
        </mxCell>
        <mxCell id="ysUKuYNqQgm_iFsBiP2R-24" value="+ ProductPhoto String" style="text;align=left;verticalAlign=top;spacingLeft=4;spacingRight=4;overflow=hidden;rotatable=0;points=[[0,0.5],[1,0.5]];portConstraint=eastwest;" vertex="1" parent="ysUKuYNqQgm_iFsBiP2R-3">
          <mxGeometry y="104" width="140" height="26" as="geometry" />
        </mxCell>
        <mxCell id="ysUKuYNqQgm_iFsBiP2R-25" value="+ EAN Int" style="text;align=left;verticalAlign=top;spacingLeft=4;spacingRight=4;overflow=hidden;rotatable=0;points=[[0,0.5],[1,0.5]];portConstraint=eastwest;" vertex="1" parent="ysUKuYNqQgm_iFsBiP2R-3">
          <mxGeometry y="130" width="140" height="26" as="geometry" />
        </mxCell>
        <mxCell id="ysUKuYNqQgm_iFsBiP2R-7" value="searches" style="swimlane;fontStyle=0;childLayout=stackLayout;horizontal=1;startSize=26;fillColor=#fff2cc;horizontalStack=0;resizeParent=1;resizeParentMax=0;resizeLast=0;collapsible=1;marginBottom=0;strokeColor=#d6b656;" vertex="1" parent="1">
          <mxGeometry x="40" y="520" width="140" height="52" as="geometry" />
        </mxCell>
        <mxCell id="ysUKuYNqQgm_iFsBiP2R-8" value="+ fk_product_id Int" style="text;align=left;verticalAlign=top;spacingLeft=4;spacingRight=4;overflow=hidden;rotatable=0;points=[[0,0.5],[1,0.5]];portConstraint=eastwest;" vertex="1" parent="ysUKuYNqQgm_iFsBiP2R-7">
          <mxGeometry y="26" width="140" height="26" as="geometry" />
        </mxCell>
        <mxCell id="ysUKuYNqQgm_iFsBiP2R-18" value="buy" style="swimlane;fontStyle=0;childLayout=stackLayout;horizontal=1;startSize=26;fillColor=#fff2cc;horizontalStack=0;resizeParent=1;resizeParentMax=0;resizeLast=0;collapsible=1;marginBottom=0;strokeColor=#d6b656;" vertex="1" parent="1">
          <mxGeometry x="460" y="520" width="140" height="130" as="geometry" />
        </mxCell>
        <mxCell id="ysUKuYNqQgm_iFsBiP2R-19" value="+ buy_ID Int" style="text;align=left;verticalAlign=top;spacingLeft=4;spacingRight=4;overflow=hidden;rotatable=0;points=[[0,0.5],[1,0.5]];portConstraint=eastwest;" vertex="1" parent="ysUKuYNqQgm_iFsBiP2R-18">
          <mxGeometry y="26" width="140" height="26" as="geometry" />
        </mxCell>
        <mxCell id="ysUKuYNqQgm_iFsBiP2R-20" value="+ fk_product_id Int" style="text;align=left;verticalAlign=top;spacingLeft=4;spacingRight=4;overflow=hidden;rotatable=0;points=[[0,0.5],[1,0.5]];portConstraint=eastwest;" vertex="1" parent="ysUKuYNqQgm_iFsBiP2R-18">
          <mxGeometry y="52" width="140" height="26" as="geometry" />
        </mxCell>
        <mxCell id="ysUKuYNqQgm_iFsBiP2R-21" value="+ fk_customer_id Int" style="text;align=left;verticalAlign=top;spacingLeft=4;spacingRight=4;overflow=hidden;rotatable=0;points=[[0,0.5],[1,0.5]];portConstraint=eastwest;" vertex="1" parent="ysUKuYNqQgm_iFsBiP2R-18">
          <mxGeometry y="78" width="140" height="26" as="geometry" />
        </mxCell>
        <mxCell id="ysUKuYNqQgm_iFsBiP2R-23" value="+ fk_payment_id Int" style="text;align=left;verticalAlign=top;spacingLeft=4;spacingRight=4;overflow=hidden;rotatable=0;points=[[0,0.5],[1,0.5]];portConstraint=eastwest;" vertex="1" parent="ysUKuYNqQgm_iFsBiP2R-18">
          <mxGeometry y="104" width="140" height="26" as="geometry" />
        </mxCell>
      </root>
    </mxGraphModel>
  </diagram>
</mxfile>
